:SAMPLES-PER-SECOND 30
:FRAME-RANGE 1-668
:FULLY-SPECIFIED
:DEGREES
105
root  0.0347614 39.2279 27.5573 -173.434 -1.17694 -178.13
RightUpLeg  -14.125 3.26128 -5.07341
RightLeg  19.4193 1.50891 0.383571
RightFoot  -11.9878 -0.0312448 8.90084
RightToes  5.38607e-012 1.2921e-014 -6.02303e-014
Spine  -4.70623 -3.06263 -2.62454
Spine1  9.83782 -2.76408 -1.54211
HEad  17.79 -28.2542 1.59416
LeftShoulder1  1.0828 -1.56992 -15.665
LeftArm  -14.4707 -2.90462 -12.2215
LeftForeArm  10.7164 -2.49557 -7.59577
LeftHand  0.00775476 5.69397 10.3566
RightShoulder  1.54015 2.71785 19.131
RightArm  -47.8341 9.50236 13.1497
RightForeArm  73.8585 23.0547 1.57692
RightHand  0.678294 -7.27097 -39.5459
LeftUpLeg  -16.5606 -6.40677 3.0242
LeftLeg  23.7398 10.8961 5.5422
LeftFoot  -11.7814 0.0548494 -4.10079
LeftToes  -6.11857e-011 5.00151e-011 -2.22593e-011
106
root  0.115499 39.1138 27.5383 -173.565 -1.13678 -178.052
RightUpLeg  -14.6955 3.54476 -4.85467
RightLeg  20.9685 1.28491 0.33406
RightFoot  -12.8118 0.0259593 8.79686
RightToes  5.38607e-012 1.2921e-014 -6.02303e-014
Spine  -3.968 -3.30153 -2.74724
Spine1  9.47425 -2.84137 -2.2317
HEad  18.0786 -25.7586 2.35676
LeftShoulder1  1.07394 -1.35122 -16.594
LeftArm  -14.5206 -2.64192 -11.4913
LeftForeArm  10.666 -3.29111 -7.61469
LeftHand  0.0108504 5.72645 10.4348
RightShoulder  1.18382 1.73299 16.8287
RightArm  -44.8641 4.73438 9.40685
RightForeArm  74.5334 32.0273 3.36144
RightHand  0.934274 -8.7468 -31.4745
LeftUpLeg  -16.9767 -6.38558 3.2305
LeftLeg  25.0115 10.7288 5.75888
LeftFoot  -12.5412 0.0289043 -4.41387
LeftToes  -6.11857e-011 5.00151e-011 -2.22593e-011
107
root  0.203252 38.9722 27.5082 -173.884 -0.816574 -178.042
RightUpLeg  -15.29 3.78373 -4.7095
RightLeg  22.9161 1.39929 0.436325
RightFoot  -13.7615 0.0884241 8.60026
RightToes  5.38607e-012 1.2921e-014 -6.02303e-014
Spine  -2.94093 -3.62074 -2.75105
Spine1  8.71919 -2.93255 -3.3037
HEad  18.9354 -22.748 2.90003
LeftShoulder1  1.04259 -0.990772 -17.9006
LeftArm  -14.4927 -2.36474 -10.2655
LeftForeArm  11.2518 -3.93851 -7.65742
LeftHand  0.013068 5.75849 10.3088
RightShoulder  0.941322 1.4032 12.9415
RightArm  -40.9946 -0.0794687 5.02906
RightForeArm  74.421 39.3287 5.05955
RightHand  0.549796 -8.36608 -21.7311
LeftUpLeg  -17.2245 -6.27488 3.33721
LeftLeg  26.5147 10.6562 6.07834
LeftFoot  -13.453 -0.00748456 -4.77687
LeftToes  -6.11857e-011 5.00151e-011 -2.22593e-011
108
root  0.298313 38.808 27.4691 -174.427 -0.00827026 -178.287
RightUpLeg  -15.9098 4.21139 -4.84875
RightLeg  25.2159 1.75849 0.686541
RightFoot  -14.7093 0.144325 8.29575
RightToes  5.38607e-012 1.2921e-014 -6.02303e-014
Spine  -1.90427 -3.92248 -2.57728
Spine1  7.99154 -2.85402 -5.10804
HEad  20.1632 -19.5418 3.24467
LeftShoulder1  0.994113 -0.54247 -19.589
LeftArm  -14.3544 -2.3391 -8.74396
LeftForeArm  11.3887 -4.24046 -7.72917
LeftHand  0.0216806 5.86242 10.2635
RightShoulder  0.76951 1.62714 8.03748
RightArm  -34.1545 -3.52591 0.14563
RightForeArm  71.7374 43.4163 6.2531
RightHand  0.2499 -7.55019 -14.5496
LeftUpLeg  -17.1909 -5.72558 3.09984
LeftLeg  28.1585 10.675 6.4902
LeftFoot  -14.3921 -0.0479464 -5.03541
LeftToes  -6.11857e-011 5.00151e-011 -2.22593e-011
109
root  0.42092 38.6427 27.4254 -175.095 1.40517 -178.887
RightUpLeg  -16.6238 5.10121 -5.33298
RightLeg  27.7655 2.22595 1.05006
RightFoot  -15.6831 0.191593 7.85329
RightToes  5.38607e-012 1.2921e-014 -6.02303e-014
Spine  -1.03052 -3.94146 -2.16026
Spine1  7.58946 -2.24184 -7.96593
HEad  20.9077 -16.6686 3.93454
LeftShoulder1  0.980331 -0.249166 -21.4534
LeftArm  -14.704 -2.99581 -7.22207
LeftForeArm  10.9111 -3.99149 -7.634
LeftHand  0.0175269 5.84678 9.71031
RightShoulder  0.579178 2.04335 2.64725
RightArm  -27.1004 -5.60455 -4.14059
RightForeArm  67.2711 44.9127 6.87873
RightHand  0.00574131 -5.75339 -8.97402
LeftUpLeg  -16.7481 -4.36794 2.49614
LeftLeg  29.4068 10.5281 6.71994
LeftFoot  -15.314 -0.0899179 -5.23471
LeftToes  -6.11857e-011 5.00151e-011 -2.22593e-011
110
root  0.551418 38.515 27.3613 -175.682 3.07288 -179.662
RightUpLeg  -17.4908 5.98464 -6.0353
RightLeg  30.2538 2.92811 1.61813
RightFoot  -16.2755 0.217141 7.59501
RightToes  5.38607e-012 1.2921e-014 -6.02303e-014
Spine  -0.766444 -4.02794 -1.33494
Spine1  7.62569 -1.47353 -11.6287
HEad  21.1131 -14.0067 4.88288
LeftShoulder1  0.988771 -0.071042 -23.2604
LeftArm  -15.1848 -3.6424 -5.73096
LeftForeArm  9.5051 -3.60676 -7.4602
LeftHand  0.00883034 5.77242 9.09083
RightShoulder  0.332333 2.34426 -3.00286
RightArm  -20.8702 -4.83961 -6.66846
RightForeArm  64.0694 44.5127 6.90168
RightHand  -0.0665395 -4.20269 -4.61287
LeftUpLeg  -16.0496 -2.5397 1.77196
LeftLeg  30.0114 10.2397 6.70155
LeftFoot  -16.0895 -0.132498 -5.51704
LeftToes  -6.11857e-011 5.00151e-011 -2.22593e-011
111
root  0.671068 38.4013 27.2895 -176.258 4.79369 179.743
RightUpLeg  -18.5267 7.4069 -6.51691
RightLeg  32.949 3.16224 1.97161
RightFoot  -16.456 0.226237 7.55738
RightToes  5.38607e-012 1.2921e-014 -6.02303e-014
Spine  -0.402431 -4.00114 -0.255555
Spine1  7.47403 -0.679884 -14.977
HEad  21.3885 -11.5253 5.38006
LeftShoulder1  1.08277 -0.130314 -25.6012
LeftArm  -15.9463 -4.40338 -4.31414
LeftForeArm  9.57084 -3.22036 -7.22308
LeftHand  0.00550758 5.75564 8.60839
RightShoulder  0.100299 2.77159 -7.85189
RightArm  -16.2342 -2.03601 -9.11278
RightForeArm  59.0791 41.7611 6.33054
RightHand  -0.0503473 -2.36718 -1.46878
LeftUpLeg  -15.361 -0.617759 1.27739
LeftLeg  30.6003 9.93382 6.66127
LeftFoot  -16.856 -0.178915 -5.8073
LeftToes  -6.11857e-011 5.00151e-011 -2.22593e-011
112
root  0.784565 38.2699 27.2265 -176.798 6.26125 179.529
RightUpLeg  -19.6149 8.24263 -6.66552
RightLeg  35.725 3.92589 2.7862
RightFoot  -16.524 0.214907 7.21865
RightToes  5.38607e-012 1.2921e-014 -6.02303e-014
Spine  -0.169091 -4.00195 1.32039
Spine1  7.55841 0.0904335 -18.3041
HEad  21.7224 -8.95604 5.52469
LeftShoulder1  1.35422 -0.735827 -27.6738
LeftArm  -16.9833 -4.53315 -3.58133
LeftForeArm  10.3434 -3.18543 -6.8383
LeftHand  -0.00196023 5.67602 8.08476
RightShoulder  -0.124477 3.63244 -11.7776
RightArm  -10.9448 2.07395 -11.634
RightForeArm  53.8581 37.2595 5.37647
RightHand  0.0170481 -0.578509 0.491695
LeftUpLeg  -14.9267 1.1427 1.2465
LeftLeg  31.563 9.52853 6.63994
LeftFoot  -17.7283 -0.22832 -5.9912
LeftToes  -6.11857e-011 5.00151e-011 -2.22593e-011
113
root  0.883157 38.146 27.1313 -177.23 7.27773 179.413
RightUpLeg  -20.5987 8.62626 -6.69441
RightLeg  38.3701 4.56568 3.61529
RightFoot  -16.4785 0.215473 7.28835
RightToes  5.38607e-012 1.2921e-014 -6.02303e-014
Spine  -0.0999721 -3.87091 2.39216
Spine1  7.7649 0.644727 -20.1119
HEad  22.3366 -6.26242 4.87392
LeftShoulder1  1.75609 -1.58042 -30.1689
LeftArm  -17.2139 -4.63525 -3.20446
LeftForeArm  10.7811 -3.30087 -6.7764
LeftHand  -0.00375097 5.67516 7.60094
RightShoulder  -0.321591 4.64475 -14.3261
RightArm  -4.78687 7.54848 -15.0869
RightForeArm  46.6845 30.0598 4.02256
RightHand  0.128846 1.28027 2.12769
LeftUpLeg  -14.576 2.38644 1.31719
LeftLeg  32.4884 9.19469 6.64258
LeftFoot  -18.5955 -0.277392 -6.12891
LeftToes  -6.11857e-011 5.00151e-011 -2.22593e-011
114
root  0.986028 38.0361 27.0178 -177.53 7.55424 179.335
RightUpLeg  -21.3755 8.52301 -6.71744
RightLeg  40.6977 5.06348 4.38819
RightFoot  -16.3936 0.215179 7.39115
RightToes  5.38607e-012 1.2921e-014 -6.02303e-014
Spine  -0.972164 -4.09273 2.86238
Spine1  9.40144 0.761639 -20.7821
HEad  22.4004 -2.66018 4.28053
LeftShoulder1  2.07269 -2.4415 -30.301
LeftArm  -16.8275 -3.30659 -5.2935
LeftForeArm  13.2315 -3.69768 -6.83755
LeftHand  -0.0132383 5.5388 7.1253
RightShoulder  -0.460032 5.15238 -15.9099
RightArm  -6.56109 13.7829 -17.6664
RightForeArm  43.7943 19.4182 4.93718
RightHand  0.182892 3.13822 2.25768
LeftUpLeg  -14.3375 3.29142 1.47825
LeftLeg  33.2014 8.57145 6.38492
LeftFoot  -19.3706 -0.310496 -6.07334
LeftToes  -6.11857e-011 5.00151e-011 -2.22593e-011
115
root  1.07778 37.9511 26.9002 -177.892 6.86552 179.416
RightUpLeg  -21.5248 7.39682 -6.53362
RightLeg  42.4196 5.51641 5.10455
RightFoot  -16.3688 0.204244 7.17534
RightToes  5.38607e-012 1.2921e-014 -6.02303e-014
Spine  -1.04797 -4.39177 2.68408
Spine1  10.3224 0.235106 -19.6903
HEad  22.4446 0.88863 3.54811
LeftShoulder1  2.7843 -4.56049 -29.6329
LeftArm  -15.8158 0.27141 -8.20249
LeftForeArm  17.5199 -4.20652 -6.94137
LeftHand  -0.045861 4.95556 6.89119
RightShoulder  -0.496143 4.71674 -16.781
RightArm  -26.0702 18.7702 -20.2792
RightForeArm  58.0957 9.38913 8.23558
RightHand  0.223751 4.07576 2.47034
LeftUpLeg  -14.107 3.3086 1.79969
LeftLeg  33.8388 7.86538 6.03062
LeftFoot  -20.01 -0.341182 -6.07917
LeftToes  -6.11857e-011 5.00151e-011 -2.22593e-011
